<svg height="2238" width="720" xmlns="http://www.w3.org/2000/svg">
<rect height="2238" fill="#555" width="720"></rect>
<text fill="#7f7" font-family="Courier New" font-size="12" xml:space="preserve">
<tspan x="10" y="26">29 megabytes installed</tspan>
<tspan x="10" y="42"></tspan>
<tspan x="10" y="58">node_modules</tspan>
<tspan x="10" y="74">└─┬ node-opcua@0.0.64 </tspan>
<tspan x="10" y="90">  ├─┬ async@2.3.0 </tspan>
<tspan x="10" y="106">  │ └── lodash@4.17.4 </tspan>
<tspan x="10" y="122">  ├─┬ backoff@2.5.0 </tspan>
<tspan x="10" y="138">  │ └── precond@0.2.3 </tspan>
<tspan x="10" y="154">  ├─┬ better-assert@1.0.2 </tspan>
<tspan x="10" y="170">  │ └── callsite@1.0.0 </tspan>
<tspan x="10" y="186">  ├── bomstrip@0.1.4 </tspan>
<tspan x="10" y="202">  ├── byline@5.0.0 </tspan>
<tspan x="10" y="218">  ├── colors@1.1.2 </tspan>
<tspan x="10" y="234">  ├── date-utils@1.2.21 </tspan>
<tspan x="10" y="250">  ├─┬ deassertify@0.1.2 </tspan>
<tspan x="10" y="266">  │ ├─┬ falafel@2.1.0 </tspan>
<tspan x="10" y="282">  │ │ ├── acorn@5.0.3 </tspan>
<tspan x="10" y="298">  │ │ ├── foreach@2.0.5 </tspan>
<tspan x="10" y="314">  │ │ ├── isarray@0.0.1 </tspan>
<tspan x="10" y="330">  │ │ └── object-keys@1.0.11 </tspan>
<tspan x="10" y="346">  │ ├── minimist@1.2.0 </tspan>
<tspan x="10" y="362">  │ └─┬ through2@2.0.3 </tspan>
<tspan x="10" y="378">  │   ├─┬ readable-stream@2.2.9 </tspan>
<tspan x="10" y="394">  │   │ ├── buffer-shims@1.0.0 </tspan>
<tspan x="10" y="410">  │   │ ├── core-util-is@1.0.2 </tspan>
<tspan x="10" y="426">  │   │ ├── isarray@1.0.0 </tspan>
<tspan x="10" y="442">  │   │ ├── process-nextick-args@1.0.7 </tspan>
<tspan x="10" y="458">  │   │ ├── string_decoder@1.0.0 </tspan>
<tspan x="10" y="474">  │   │ └── util-deprecate@1.0.2 </tspan>
<tspan x="10" y="490">  │   └── xtend@4.0.1 </tspan>
<tspan x="10" y="506">  ├── delayed@1.0.1 </tspan>
<tspan x="10" y="522">  ├── dequeue@1.0.5 </tspan>
<tspan x="10" y="538">  ├─┬ easy-table@1.1.0 </tspan>
<tspan x="10" y="554">  │ └─┬ wcwidth@1.0.1 </tspan>
<tspan x="10" y="570">  │   └─┬ defaults@1.0.3 </tspan>
<tspan x="10" y="586">  │     └── clone@1.0.2 </tspan>
<tspan x="10" y="602">  ├── exit@0.1.2 </tspan>
<tspan x="10" y="618">  ├─┬ fqdn@0.0.3 </tspan>
<tspan x="10" y="634">  │ └── shelljs@0.3.0 </tspan>
<tspan x="10" y="650">  ├── hexy@0.2.9 </tspan>
<tspan x="10" y="666">  ├── humanize@0.0.9 </tspan>
<tspan x="10" y="682">  ├─┬ ltx@2.7.1 </tspan>
<tspan x="10" y="698">  │ └── inherits@2.0.3 </tspan>
<tspan x="10" y="714">  ├── moment@2.18.1 </tspan>
<tspan x="10" y="730">  ├── node-jsrsasign@0.0.7 </tspan>
<tspan x="10" y="746">  ├─┬ node-opcua-crypto@0.0.8 </tspan>
<tspan x="10" y="762">  │ └─┬ ssh-key-to-pem@0.11.1 </tspan>
<tspan x="10" y="778">  │   ├── asn1@0.1.11 </tspan>
<tspan x="10" y="794">  │   └── ctype@0.5.2 </tspan>
<tspan x="10" y="810">  ├─┬ node-opcua-pki@0.0.12 </tspan>
<tspan x="10" y="826">  │ ├─┬ cli-table@0.3.1 </tspan>
<tspan x="10" y="842">  │ │ └── colors@1.0.3 </tspan>
<tspan x="10" y="858">  │ ├─┬ del@2.2.2 </tspan>
<tspan x="10" y="874">  │ │ ├─┬ globby@5.0.0 </tspan>
<tspan x="10" y="890">  │ │ │ ├─┬ array-union@1.0.2 </tspan>
<tspan x="10" y="906">  │ │ │ │ └── array-uniq@1.0.3 </tspan>
<tspan x="10" y="922">  │ │ │ ├── arrify@1.0.1 </tspan>
<tspan x="10" y="938">  │ │ │ └─┬ glob@7.1.1 </tspan>
<tspan x="10" y="954">  │ │ │   ├── fs.realpath@1.0.0 </tspan>
<tspan x="10" y="970">  │ │ │   ├── inflight@1.0.6 </tspan>
<tspan x="10" y="986">  │ │ │   ├─┬ minimatch@3.0.3 </tspan>
<tspan x="10" y="1002">  │ │ │   │ └─┬ brace-expansion@1.1.7 </tspan>
<tspan x="10" y="1018">  │ │ │   │   ├── balanced-match@0.4.2 </tspan>
<tspan x="10" y="1034">  │ │ │   │   └── concat-map@0.0.1 </tspan>
<tspan x="10" y="1050">  │ │ │   └── path-is-absolute@1.0.1 </tspan>
<tspan x="10" y="1066">  │ │ ├── is-path-cwd@1.0.0 </tspan>
<tspan x="10" y="1082">  │ │ ├─┬ is-path-in-cwd@1.0.0 </tspan>
<tspan x="10" y="1098">  │ │ │ └─┬ is-path-inside@1.0.0 </tspan>
<tspan x="10" y="1114">  │ │ │   └── path-is-inside@1.0.2 </tspan>
<tspan x="10" y="1130">  │ │ ├── object-assign@4.1.1 </tspan>
<tspan x="10" y="1146">  │ │ ├── pify@2.3.0 </tspan>
<tspan x="10" y="1162">  │ │ ├─┬ pinkie-promise@2.0.1 </tspan>
<tspan x="10" y="1178">  │ │ │ └── pinkie@2.0.4 </tspan>
<tspan x="10" y="1194">  │ │ └── rimraf@2.6.1 </tspan>
<tspan x="10" y="1210">  │ ├─┬ walk@2.3.9 </tspan>
<tspan x="10" y="1226">  │ │ └── foreachasync@3.0.0 </tspan>
<tspan x="10" y="1242">  │ └─┬ yauzl@2.7.0 </tspan>
<tspan x="10" y="1258">  │   ├── buffer-crc32@0.2.13 </tspan>
<tspan x="10" y="1274">  │   └─┬ fd-slicer@1.0.1 </tspan>
<tspan x="10" y="1290">  │     └── pend@1.2.0 </tspan>
<tspan x="10" y="1306">  ├─┬ once@1.4.0 </tspan>
<tspan x="10" y="1322">  │ └── wrappy@1.0.2 </tspan>
<tspan x="10" y="1338">  ├── progress@2.0.0 </tspan>
<tspan x="10" y="1354">  ├── q@1.5.0 </tspan>
<tspan x="10" y="1370">  ├─┬ requirish@0.3.0 </tspan>
<tspan x="10" y="1386">  │ ├─┬ resolve@1.3.3 </tspan>
<tspan x="10" y="1402">  │ │ └── path-parse@1.0.5 </tspan>
<tspan x="10" y="1418">  │ └── through2@2.0.3 </tspan>
<tspan x="10" y="1434">  ├── set-prototype-of@1.0.0 </tspan>
<tspan x="10" y="1450">  ├── sprintf@0.1.5 </tspan>
<tspan x="10" y="1466">  ├── timespan@2.3.0 </tspan>
<tspan x="10" y="1482">  ├── treeify@1.0.1 </tspan>
<tspan x="10" y="1498">  ├── underscore@1.8.3 </tspan>
<tspan x="10" y="1514">  ├─┬ wget-improved@1.4.0 </tspan>
<tspan x="10" y="1530">  │ └── tunnel@0.0.2 </tspan>
<tspan x="10" y="1546">  ├── xml-writer@1.7.0 </tspan>
<tspan x="10" y="1562">  └─┬ yargs@7.1.0 </tspan>
<tspan x="10" y="1578">    ├── camelcase@3.0.0 </tspan>
<tspan x="10" y="1594">    ├─┬ cliui@3.2.0 </tspan>
<tspan x="10" y="1610">    │ ├─┬ strip-ansi@3.0.1 </tspan>
<tspan x="10" y="1626">    │ │ └── ansi-regex@2.1.1 </tspan>
<tspan x="10" y="1642">    │ └── wrap-ansi@2.1.0 </tspan>
<tspan x="10" y="1658">    ├── decamelize@1.2.0 </tspan>
<tspan x="10" y="1674">    ├── get-caller-file@1.0.2 </tspan>
<tspan x="10" y="1690">    ├─┬ os-locale@1.4.0 </tspan>
<tspan x="10" y="1706">    │ └─┬ lcid@1.0.0 </tspan>
<tspan x="10" y="1722">    │   └── invert-kv@1.0.0 </tspan>
<tspan x="10" y="1738">    ├─┬ read-pkg-up@1.0.1 </tspan>
<tspan x="10" y="1754">    │ ├─┬ find-up@1.1.2 </tspan>
<tspan x="10" y="1770">    │ │ └── path-exists@2.1.0 </tspan>
<tspan x="10" y="1786">    │ └─┬ read-pkg@1.1.0 </tspan>
<tspan x="10" y="1802">    │   ├─┬ load-json-file@1.1.0 </tspan>
<tspan x="10" y="1818">    │   │ ├── graceful-fs@4.1.11 </tspan>
<tspan x="10" y="1834">    │   │ ├─┬ parse-json@2.2.0 </tspan>
<tspan x="10" y="1850">    │   │ │ └─┬ error-ex@1.3.1 </tspan>
<tspan x="10" y="1866">    │   │ │   └── is-arrayish@0.2.1 </tspan>
<tspan x="10" y="1882">    │   │ └─┬ strip-bom@2.0.0 </tspan>
<tspan x="10" y="1898">    │   │   └── is-utf8@0.2.1 </tspan>
<tspan x="10" y="1914">    │   ├─┬ normalize-package-data@2.3.6 </tspan>
<tspan x="10" y="1930">    │   │ ├── hosted-git-info@2.4.2 </tspan>
<tspan x="10" y="1946">    │   │ ├─┬ is-builtin-module@1.0.0 </tspan>
<tspan x="10" y="1962">    │   │ │ └── builtin-modules@1.1.1 </tspan>
<tspan x="10" y="1978">    │   │ ├── semver@5.3.0 </tspan>
<tspan x="10" y="1994">    │   │ └─┬ validate-npm-package-license@3.0.1 </tspan>
<tspan x="10" y="2010">    │   │   ├─┬ spdx-correct@1.0.2 </tspan>
<tspan x="10" y="2026">    │   │   │ └── spdx-license-ids@1.2.2 </tspan>
<tspan x="10" y="2042">    │   │   └── spdx-expression-parse@1.0.4 </tspan>
<tspan x="10" y="2058">    │   └── path-type@1.1.0 </tspan>
<tspan x="10" y="2074">    ├── require-directory@2.1.1 </tspan>
<tspan x="10" y="2090">    ├── require-main-filename@1.0.1 </tspan>
<tspan x="10" y="2106">    ├── set-blocking@2.0.0 </tspan>
<tspan x="10" y="2122">    ├─┬ string-width@1.0.2 </tspan>
<tspan x="10" y="2138">    │ ├── code-point-at@1.1.0 </tspan>
<tspan x="10" y="2154">    │ └─┬ is-fullwidth-code-point@1.0.0 </tspan>
<tspan x="10" y="2170">    │   └── number-is-nan@1.0.1 </tspan>
<tspan x="10" y="2186">    ├── which-module@1.0.0 </tspan>
<tspan x="10" y="2202">    ├── y18n@3.2.1 </tspan>
<tspan x="10" y="2218">    └── yargs-parser@5.0.0</tspan>
</text>
</svg>
